HIERARCHY
ROOT Hips
{
	OFFSET 0.000000 0.000000 0.000000
	CHANNELS 6 Xposition Yposition Zposition Xrotation Yrotation Zrotation
	JOINT LeftUpLeg_virtual
	{
		OFFSET 0.000000 0.000000 0.000000
		CHANNELS 3 Xrotation Yrotation Zrotation
		JOINT LeftUpLeg
		{
			OFFSET 11.394100 -6.187798 -0.413800
			CHANNELS 3 Xrotation Yrotation Zrotation
			JOINT LeftLeg
			{
				OFFSET 0.430247 -32.302673 3.732800
				CHANNELS 3 Xrotation Yrotation Zrotation
				JOINT LeftFoot
				{
					OFFSET -0.430247 -48.264931 -6.423300
					CHANNELS 3 Xrotation Yrotation Zrotation
					JOINT LeftToeBase
					{
						OFFSET 4.230900 -16.068199 23.438400
						CHANNELS 3 Xrotation Yrotation Zrotation
						JOINT LeftToe_End
						{
							OFFSET 4.510700 0.695400 19.974600
							CHANNELS 3 Xrotation Yrotation Zrotation
							End Site
							{
								OFFSET 0 0 0
							}
						}
					}
				}
			}
		}
	}
	JOINT RightUpLeg_virtual
	{
		OFFSET 0.000000 0.000000 0.000000
		CHANNELS 3 Xrotation Yrotation Zrotation
		JOINT RightUpLeg
		{
			OFFSET -11.333700 -6.187798 -0.413800
			CHANNELS 3 Xrotation Yrotation Zrotation
			JOINT RightLeg
			{
				OFFSET -0.430392 -32.302628 3.733000
				CHANNELS 3 Xrotation Yrotation Zrotation
				JOINT RightFoot
				{
					OFFSET 0.430392 -48.264973 -6.423500
					CHANNELS 3 Xrotation Yrotation Zrotation
					JOINT RightToeBase
					{
						OFFSET -4.230900 -16.068199 23.438400
						CHANNELS 3 Xrotation Yrotation Zrotation
						JOINT RightToe_End
						{
							OFFSET -4.510700 0.695400 19.974600
							CHANNELS 3 Xrotation Yrotation Zrotation
							End Site
							{
								OFFSET 0 0 0
							}
						}
					}
				}
			}
		}
	}
	JOINT Spine_virtual
	{
		OFFSET 0.000000 0.000000 0.000000
		CHANNELS 3 Xrotation Yrotation Zrotation
		JOINT Spine
		{
			OFFSET -0.002400 12.777504 0.315300
			CHANNELS 3 Xrotation Yrotation Zrotation
			JOINT Spine1
			{
				OFFSET -0.002067 5.816869 0.032633
				CHANNELS 3 Xrotation Yrotation Zrotation
				JOINT Spine1_split
				{
					OFFSET -0.002067 5.816869 0.032633
					CHANNELS 3 Xrotation Yrotation Zrotation
					JOINT Spine2
					{
						OFFSET -0.002067 5.816869 0.032633
						CHANNELS 3 Xrotation Yrotation Zrotation
						JOINT Neck_virtual
						{
							OFFSET 0.000000 0.000000 0.000000
							CHANNELS 3 Xrotation Yrotation Zrotation
							JOINT Neck
							{
								OFFSET -0.003700 21.199493 -0.826900
								CHANNELS 3 Xrotation Yrotation Zrotation
								JOINT Head
								{
									OFFSET 0.000000 20.442200 4.834800
									CHANNELS 3 Xrotation Yrotation Zrotation
									JOINT HeadTop_End
									{
										OFFSET 0.000000 34.668396 4.968400
										CHANNELS 3 Xrotation Yrotation Zrotation
										End Site
										{
											OFFSET 0 0 0
										}
									}
								}
							}
						}
						JOINT LeftShoulder_virtual
						{
							OFFSET 0.000000 0.000000 0.000000
							CHANNELS 3 Xrotation Yrotation Zrotation
							JOINT LeftShoulder
							{
								OFFSET 3.288150 8.794197 -1.372250
								CHANNELS 3 Xrotation Yrotation Zrotation
								JOINT LeftShoulder_split
								{
									OFFSET 3.288150 8.794197 -1.372250
									CHANNELS 3 Xrotation Yrotation Zrotation
									JOINT LeftArm
									{
										OFFSET 11.953299 -2.279007 -0.146200
										CHANNELS 3 Xrotation Yrotation Zrotation
										JOINT LeftForeArm
										{
											OFFSET 18.448900 0.000000 0.000000
											CHANNELS 3 Xrotation Yrotation Zrotation
											JOINT LeftHand
											{
												OFFSET 29.527798 0.000000 0.000000
												CHANNELS 3 Xrotation Yrotation Zrotation
												End Site
												{
													OFFSET 0 0 0
												}
											}
										}
									}
								}
							}
						}
						JOINT RightShoulder_virtual
						{
							OFFSET 0.000000 0.000000 0.000000
							CHANNELS 3 Xrotation Yrotation Zrotation
							JOINT RightShoulder
							{
								OFFSET -3.249400 8.794197 -1.372250
								CHANNELS 3 Xrotation Yrotation Zrotation
								JOINT RightShoulder_split
								{
									OFFSET -3.249400 8.794197 -1.372250
									CHANNELS 3 Xrotation Yrotation Zrotation
									JOINT RightArm
									{
										OFFSET -11.953299 -2.279007 -0.146200
										CHANNELS 3 Xrotation Yrotation Zrotation
										JOINT RightForeArm
										{
											OFFSET -18.448900 0.000000 0.000000
											CHANNELS 3 Xrotation Yrotation Zrotation
											JOINT RightHand
											{
												OFFSET -29.527802 0.000000 0.000000
												CHANNELS 3 Xrotation Yrotation Zrotation
												End Site
												{
													OFFSET 0 0 0
												}
											}
										}
									}
								}
							}
						}
					}
				}
			}
		}
	}
}
MOTION
Frames: 8
Frame Time: 0.03333333
-7.912982 70.318138 -7.460838 0.000000 0.000000 0.000000 -2.553237 11.796834 3.834196 -81.493712 1.307125 4.339518 62.330551 -0.515365 -3.633470 22.296732 -9.240951 3.608476 0.227811 2.550977 -1.101726 0.000000 0.000000 0.000000 -2.363585 13.665622 3.702153 3.597501 -3.311251 -8.050519 82.340854 5.254617 -5.652369 -50.087915 -20.574031 19.744019 -23.277626 15.105800 -28.220120 0.000000 0.000000 0.000000 -3.199045 15.718036 1.439024 12.829069 2.543056 -2.711530 8.397669 -4.618032 -0.345384 0.165447 -0.681339 0.160725 0.000000 0.000000 0.000000 8.573902 -1.132068 -0.325317 -21.334443 9.673228 2.883003 -9.487879 -32.494645 -2.651471 0.000000 0.000000 0.000000 7.960521 -2.749715 -1.945270 -5.026071 -36.836781 -11.759798 -7.849428 2.483219 0.755038 -20.012488 -12.578568 -38.045110 -131.850723 -58.762262 -118.841767 0.000000 0.000000 0.000000 10.145408 -1.723852 -0.483196 -11.839757 22.707246 9.793622 4.993246 2.751868 4.682252 -44.851185 11.960068 57.665354 -158.866457 67.245692 156.180963 0.000000 0.000000 0.000000 
-8.391609 74.811356 -6.999783 0.000000 0.000000 0.000000 -0.372975 14.380376 3.766960 -76.337698 1.409213 3.448872 53.235212 -1.713074 -2.138536 22.880598 -10.521988 1.916702 1.556004 2.179257 -0.176037 0.000000 0.000000 0.000000 -0.237789 15.771704 3.676290 4.317279 -5.037935 -6.829804 73.274925 4.292651 -4.763801 -48.292713 -20.709818 17.790491 -20.015149 13.259463 -27.208330 0.000000 0.000000 0.000000 -0.838760 17.847361 1.752935 12.528056 0.987018 -3.305960 6.631889 -3.927107 -2.074195 0.037298 -0.547525 0.227607 0.000000 0.000000 0.000000 7.077206 -0.488290 -1.821573 -24.845805 9.644726 6.254413 -19.953884 -33.505664 -2.560863 0.000000 0.000000 0.000000 6.002071 -1.779147 -2.990146 -3.546019 -31.136712 -7.481988 -7.552414 -0.064539 1.020430 -15.910649 -10.537166 -31.766103 -160.033818 -57.823958 -151.677014 0.000000 0.000000 0.000000 8.113001 -1.407082 -2.054538 -11.227061 18.778676 7.878264 6.384077 1.609656 4.072827 -34.595967 20.004526 49.917068 -163.870636 58.773423 162.350851 0.000000 0.000000 0.000000 
-8.994738 80.378021 -6.044540 0.000000 0.000000 0.000000 2.268912 16.323360 3.128425 -70.249684 0.923471 2.910092 42.376123 -2.541245 -1.139051 23.485493 -10.873421 -0.043766 4.163823 1.826666 0.109638 0.000000 0.000000 0.000000 2.226563 17.034878 3.189368 5.230932 -5.897114 -5.352041 60.713845 3.461693 -4.073130 -44.108170 -20.287267 15.931447 -16.851250 11.232109 -24.899159 0.000000 0.000000 0.000000 2.475239 19.629299 1.349730 11.695111 -0.339212 -3.320685 4.548800 -2.986813 -3.766040 -0.172074 -0.473491 0.205905 0.000000 0.000000 0.000000 5.342308 0.267899 -3.262153 -28.422591 8.924993 9.248062 -31.887281 -33.895387 -3.450830 0.000000 0.000000 0.000000 3.840185 -0.748970 -4.018048 -2.420667 -24.600745 -2.960196 -7.370243 -0.883941 1.479569 -13.327585 -5.799328 -25.399307 178.566444 -58.612558 -177.901402 0.000000 0.000000 0.000000 6.011135 -0.897120 -3.606493 -10.645283 14.810008 6.343815 7.844009 1.009114 3.126435 -23.118100 20.878425 37.990718 -163.280303 57.194836 162.654330 0.000000 0.000000 0.000000 
-9.595192 86.223312 -4.933689 0.000000 0.000000 0.000000 5.052842 17.268151 1.820534 -63.665921 0.307122 3.097458 31.490413 -2.739877 -0.636452 23.314279 -10.071488 -2.034980 7.254625 1.552886 -0.187307 0.000000 0.000000 0.000000 4.700825 17.078140 2.151048 6.163830 -6.140822 -3.798826 45.916766 2.889458 -3.533237 -37.787844 -19.115908 13.942919 -14.718699 9.438502 -21.874471 0.000000 0.000000 0.000000 6.322950 20.645432 0.047377 10.740943 -1.404857 -2.615010 2.510177 -1.962124 -5.149292 -0.201957 -0.350024 0.100098 0.000000 0.000000 0.000000 3.579517 1.023628 -4.404744 -31.948476 7.789552 11.607150 -44.111110 -33.131151 -5.108294 0.000000 0.000000 0.000000 1.984290 0.101677 -4.959395 -1.822243 -17.690919 1.110412 -7.127124 0.104040 1.610178 -11.718660 0.991049 -19.393041 150.045965 -63.590154 148.590397 0.000000 0.000000 0.000000 4.236988 -0.243163 -4.868143 -10.086992 10.967923 5.459667 8.431680 0.518409 2.243948 -13.693162 14.655769 26.173632 -155.305278 65.394403 155.071754 0.000000 0.000000 0.000000 
-10.024199 91.338676 -3.754990 0.000000 0.000000 0.000000 7.308530 17.154983 0.112231 -57.189430 0.245198 4.154472 22.477249 -2.300762 -0.505052 21.510743 -8.349588 -3.778232 9.044598 1.400572 -0.364608 0.000000 0.000000 0.000000 6.506326 16.149004 0.616028 6.621602 -6.348726 -2.598120 32.326527 2.842557 -3.053985 -29.092559 -17.292202 12.669943 -14.697396 8.169170 -18.976680 0.000000 0.000000 0.000000 9.787431 20.967272 -1.815711 10.114574 -2.179315 -1.241822 0.884740 -1.000643 -6.063858 -0.106550 -0.303516 -0.007715 0.000000 0.000000 0.000000 2.074141 1.662605 -5.120709 -35.141576 6.414683 13.358820 -55.129247 -30.944619 -6.756517 0.000000 0.000000 0.000000 0.763451 0.762151 -5.657232 -1.725035 -10.815248 4.690666 -6.992172 1.497069 2.410359 -10.066093 9.346530 -14.489903 102.062130 -62.133562 95.186145 0.000000 0.000000 0.000000 3.048552 0.481323 -5.684157 -9.575752 7.251707 5.013789 6.885799 -0.222610 2.632053 -7.702825 4.252405 17.197356 -96.685979 79.157576 96.274481 0.000000 0.000000 0.000000 
-10.216175 94.989754 -2.728180 0.000000 0.000000 0.000000 8.426398 16.260601 -1.656710 -51.833558 0.871654 5.780503 17.314806 -1.713203 -0.506562 18.532620 -6.401394 -5.257021 8.657644 1.392042 -0.153022 0.000000 0.000000 0.000000 7.325393 14.580231 -1.098228 6.306276 -6.814412 -2.070237 22.897407 3.538033 -2.481271 -18.266839 -14.883870 12.908134 -17.164646 7.387432 -17.012499 0.000000 0.000000 0.000000 11.850960 20.912707 -3.750806 10.102820 -2.714635 0.512397 -0.122053 -0.157323 -6.472392 0.037642 -0.271517 -0.035434 0.000000 0.000000 0.000000 1.199936 2.173157 -5.416912 -37.693700 4.864274 14.642628 -63.978361 -28.100266 -7.720392 0.000000 0.000000 0.000000 0.417386 1.209269 -5.978901 -2.115230 -4.008029 8.334055 -6.068335 2.278620 3.112242 -8.621661 17.196396 -11.491777 71.731029 -45.914895 59.054020 0.000000 0.000000 0.000000 2.562074 1.144542 -6.027961 -9.137068 3.559711 4.607631 3.752520 -0.702631 3.673557 -3.911883 -6.219879 11.570626 -21.067582 61.162220 20.105767 0.000000 0.000000 0.000000 
-10.116040 96.907082 -1.963360 0.000000 0.000000 0.000000 8.217750 15.050764 -3.099864 -48.381058 1.858064 7.525648 16.866766 -1.636077 -0.625721 15.448119 -5.021793 -6.604763 7.343513 1.463757 0.448703 0.000000 0.000000 0.000000 7.061412 13.096778 -2.722367 5.400473 -7.731800 -2.397297 18.590568 5.035096 -1.785829 -7.287318 -11.893058 14.710617 -21.682181 6.940531 -16.382629 0.000000 0.000000 0.000000 12.057583 20.633725 -5.257520 10.669253 -3.088654 2.098819 -0.470949 0.537428 -6.451599 0.290185 -0.172398 -0.052499 0.000000 0.000000 0.000000 1.258603 2.620610 -5.401643 -39.143479 3.270430 15.853026 -70.232137 -25.073092 -7.686892 0.000000 0.000000 0.000000 0.804714 1.614325 -5.858879 -3.107519 2.622932 12.076427 -5.178469 2.458098 3.253526 -7.552372 22.593417 -10.803697 62.607877 -28.713104 44.173207 0.000000 0.000000 0.000000 2.688681 1.646752 -6.027247 -8.771643 -0.547881 3.693658 0.074235 -0.843122 5.053931 -0.679253 -14.104423 8.718994 -9.879222 37.509913 8.395064 0.000000 0.000000 0.000000 
-9.817796 97.299454 -1.515934 0.000000 0.000000 0.000000 6.926450 14.265406 -3.978651 -46.955464 2.762957 8.887851 20.088763 -2.103709 -0.861000 12.844320 -4.568863 -7.613715 6.546433 1.551106 1.414218 0.000000 0.000000 0.000000 5.975915 12.563558 -3.900913 4.662786 -8.966508 -3.318041 18.177152 7.046529 -1.218462 0.574181 -8.864790 16.713405 -26.053751 6.717754 -17.017679 0.000000 0.000000 0.000000 10.478390 20.599010 -6.020176 11.511107 -3.320755 3.080811 -0.270253 1.159847 -6.113094 0.360714 -0.048082 -0.034132 0.000000 0.000000 0.000000 2.229204 3.060800 -5.247063 -39.212785 1.626348 17.198741 -73.962766 -22.671479 -6.842118 0.000000 0.000000 0.000000 1.731704 2.066399 -5.334348 -4.646872 8.441472 16.132425 -3.925697 2.300068 2.591296 -7.533982 24.998417 -11.414794 61.807119 -19.123621 38.530070 0.000000 0.000000 0.000000 3.225648 2.007653 -5.782964 -8.687406 -4.888395 1.920039 -3.287304 -0.046590 6.245723 2.198048 -19.060440 8.137033 -5.930576 23.329571 4.298935 0.000000 0.000000 0.000000 
